<svg width="677" height="85" viewBox="0 0 677 85" fill="none" xmlns="http://www.w3.org/2000/svg">
<g filter="url(#filter0_d_1404_147)">
<mask id="path-1-outside-1_1404_147" maskUnits="userSpaceOnUse" x="4.05957" y="0.278412" width="669" height="77" fill="black">
<rect fill="white" x="4.05957" y="0.278412" width="669" height="77"/>
<path d="M5.05957 2.27273H22.2826L38.8664 33.5938H39.5766L56.1604 2.27273H73.3834L46.8564 49.2898V75H31.5866V49.2898L5.05957 2.27273Z"/>
<path d="M154.22 38.6364C154.22 46.5672 152.716 53.3144 149.71 58.8778C146.727 64.4413 142.655 68.6908 137.494 71.6264C132.357 74.5384 126.58 75.9943 120.164 75.9943C113.701 75.9943 107.901 74.5265 102.764 71.5909C97.6265 68.6553 93.5663 64.4058 90.5834 58.8423C87.6004 53.2789 86.1089 46.5436 86.1089 38.6364C86.1089 30.7055 87.6004 23.9583 90.5834 18.3949C93.5663 12.8314 97.6265 8.59375 102.764 5.68182C107.901 2.74622 113.701 1.27841 120.164 1.27841C126.58 1.27841 132.357 2.74622 137.494 5.68182C142.655 8.59375 146.727 12.8314 149.71 18.3949C152.716 23.9583 154.22 30.7055 154.22 38.6364ZM138.63 38.6364C138.63 33.4991 137.861 29.1667 136.322 25.6392C134.807 22.1117 132.664 19.4366 129.894 17.6136C127.125 15.7907 123.881 14.8793 120.164 14.8793C116.447 14.8793 113.204 15.7907 110.434 17.6136C107.664 19.4366 105.51 22.1117 103.971 25.6392C102.456 29.1667 101.698 33.4991 101.698 38.6364C101.698 43.7737 102.456 48.1061 103.971 51.6335C105.51 55.161 107.664 57.8362 110.434 59.6591C113.204 61.482 116.447 62.3935 120.164 62.3935C123.881 62.3935 127.125 61.482 129.894 59.6591C132.664 57.8362 134.807 55.161 136.322 51.6335C137.861 48.1061 138.63 43.7737 138.63 38.6364Z"/>
<path d="M220.532 2.27273H235.908V49.5028C235.908 54.8059 234.642 59.446 232.109 63.4233C229.599 67.4006 226.083 70.5019 221.562 72.7273C217.04 74.929 211.772 76.0298 205.759 76.0298C199.722 76.0298 194.443 74.929 189.921 72.7273C185.399 70.5019 181.884 67.4006 179.374 63.4233C176.865 59.446 175.61 54.8059 175.61 49.5028V2.27273H190.986V48.1889C190.986 50.9588 191.59 53.4209 192.798 55.5753C194.029 57.7296 195.757 59.4224 197.982 60.6534C200.208 61.8845 202.8 62.5 205.759 62.5C208.742 62.5 211.334 61.8845 213.536 60.6534C215.762 59.4224 217.478 57.7296 218.685 55.5753C219.916 53.4209 220.532 50.9588 220.532 48.1889V2.27273Z"/>
<path d="M258.559 75V2.27273H287.252C292.745 2.27273 297.432 3.25521 301.315 5.22017C305.221 7.16146 308.192 9.91951 310.228 13.4943C312.288 17.0455 313.318 21.224 313.318 26.0298C313.318 30.8594 312.276 35.0142 310.193 38.4943C308.109 41.9508 305.091 44.6023 301.137 46.4489C297.207 48.2955 292.449 49.2188 286.862 49.2188H267.65V36.8608H284.376C287.312 36.8608 289.75 36.4583 291.691 35.6534C293.633 34.8485 295.077 33.6411 296.024 32.0313C296.994 30.4214 297.48 28.4209 297.48 26.0298C297.48 23.6151 296.994 21.5791 296.024 19.9219C295.077 18.2647 293.621 17.0099 291.656 16.1577C289.715 15.2817 287.264 14.8438 284.305 14.8438H273.936V75H258.559ZM297.835 41.9034L315.91 75H298.936L281.251 41.9034H297.835Z"/>
<path d="M367.329 75V2.27273H382.705V62.3224H413.884V75H367.329Z"/>
<path d="M498.067 38.6364C498.067 46.5672 496.564 53.3144 493.557 58.8778C490.574 64.4413 486.503 68.6908 481.342 71.6264C476.204 74.5384 470.428 75.9943 464.012 75.9943C457.549 75.9943 451.749 74.5265 446.611 71.5909C441.474 68.6553 437.414 64.4058 434.431 58.8423C431.448 53.2789 429.957 46.5436 429.957 38.6364C429.957 30.7055 431.448 23.9583 434.431 18.3949C437.414 12.8314 441.474 8.59375 446.611 5.68182C451.749 2.74622 457.549 1.27841 464.012 1.27841C470.428 1.27841 476.204 2.74622 481.342 5.68182C486.503 8.59375 490.574 12.8314 493.557 18.3949C496.564 23.9583 498.067 30.7055 498.067 38.6364ZM482.478 38.6364C482.478 33.4991 481.708 29.1667 480.17 25.6392C478.654 22.1117 476.512 19.4366 473.742 17.6136C470.972 15.7907 467.729 14.8793 464.012 14.8793C460.295 14.8793 457.052 15.7907 454.282 17.6136C451.512 19.4366 449.358 22.1117 447.819 25.6392C446.304 29.1667 445.546 33.4991 445.546 38.6364C445.546 43.7737 446.304 48.1061 447.819 51.6335C449.358 55.161 451.512 57.8362 454.282 59.6591C457.052 61.482 460.295 62.3935 464.012 62.3935C467.729 62.3935 470.972 61.482 473.742 59.6591C476.512 57.8362 478.654 55.161 480.17 51.6335C481.708 48.1061 482.478 43.7737 482.478 38.6364Z"/>
<path d="M567.682 25.7813C567.185 24.053 566.487 22.526 565.587 21.2003C564.687 19.8509 563.586 18.7145 562.284 17.7912C561.006 16.8442 559.538 16.1222 557.881 15.625C556.247 15.1278 554.436 14.8793 552.448 14.8793C548.731 14.8793 545.464 15.8026 542.647 17.6491C539.853 19.4957 537.675 22.1828 536.112 25.7102C534.55 29.214 533.769 33.4991 533.769 38.5653C533.769 43.6316 534.538 47.9403 536.077 51.4915C537.616 55.0426 539.794 57.7533 542.611 59.6236C545.428 61.4702 548.755 62.3935 552.59 62.3935C556.07 62.3935 559.041 61.7779 561.503 60.5469C563.989 59.2921 565.883 57.5284 567.185 55.2557C568.511 52.983 569.174 50.2959 569.174 47.1946L572.299 47.6563H553.549V36.0795H583.982V45.2415C583.982 51.6335 582.632 57.126 579.934 61.7188C577.235 66.2879 573.518 69.8153 568.783 72.3011C564.048 74.7633 558.627 75.9943 552.519 75.9943C545.701 75.9943 539.711 74.491 534.55 71.4844C529.389 68.4541 525.364 64.1572 522.476 58.5938C519.612 53.0066 518.179 46.3778 518.179 38.7074C518.179 32.8125 519.032 27.5568 520.736 22.9403C522.464 18.3002 524.879 14.3703 527.98 11.1506C531.082 7.93087 534.692 5.48059 538.811 3.79972C542.931 2.11885 547.393 1.27841 552.199 1.27841C556.318 1.27841 560.154 1.88211 563.705 3.08949C567.256 4.27321 570.405 5.95408 573.151 8.13211C575.921 10.3101 578.182 12.9025 579.934 15.9091C581.685 18.892 582.81 22.1828 583.307 25.7813H567.682Z"/>
<path d="M672.364 38.6364C672.364 46.5672 670.861 53.3144 667.854 58.8778C664.871 64.4413 660.799 68.6908 655.638 71.6264C650.501 74.5384 644.725 75.9943 638.309 75.9943C631.846 75.9943 626.046 74.5265 620.908 71.5909C615.771 68.6553 611.711 64.4058 608.728 58.8423C605.745 53.2789 604.253 46.5436 604.253 38.6364C604.253 30.7055 605.745 23.9583 608.728 18.3949C611.711 12.8314 615.771 8.59375 620.908 5.68182C626.046 2.74622 631.846 1.27841 638.309 1.27841C644.725 1.27841 650.501 2.74622 655.638 5.68182C660.799 8.59375 664.871 12.8314 667.854 18.3949C670.861 23.9583 672.364 30.7055 672.364 38.6364ZM656.775 38.6364C656.775 33.4991 656.005 29.1667 654.467 25.6392C652.951 22.1117 650.809 19.4366 648.039 17.6136C645.269 15.7907 642.026 14.8793 638.309 14.8793C634.592 14.8793 631.349 15.7907 628.579 17.6136C625.809 19.4366 623.654 22.1117 622.116 25.6392C620.601 29.1667 619.843 33.4991 619.843 38.6364C619.843 43.7737 620.601 48.1061 622.116 51.6335C623.654 55.161 625.809 57.8362 628.579 59.6591C631.349 61.482 634.592 62.3935 638.309 62.3935C642.026 62.3935 645.269 61.482 648.039 59.6591C650.809 57.8362 652.951 55.161 654.467 51.6335C656.005 48.1061 656.775 43.7737 656.775 38.6364Z"/>
</mask>
<path d="M5.05957 2.27273H22.2826L38.8664 33.5938H39.5766L56.1604 2.27273H73.3834L46.8564 49.2898V75H31.5866V49.2898L5.05957 2.27273Z" fill="#AA0000"/>
<path d="M154.22 38.6364C154.22 46.5672 152.716 53.3144 149.71 58.8778C146.727 64.4413 142.655 68.6908 137.494 71.6264C132.357 74.5384 126.58 75.9943 120.164 75.9943C113.701 75.9943 107.901 74.5265 102.764 71.5909C97.6265 68.6553 93.5663 64.4058 90.5834 58.8423C87.6004 53.2789 86.1089 46.5436 86.1089 38.6364C86.1089 30.7055 87.6004 23.9583 90.5834 18.3949C93.5663 12.8314 97.6265 8.59375 102.764 5.68182C107.901 2.74622 113.701 1.27841 120.164 1.27841C126.58 1.27841 132.357 2.74622 137.494 5.68182C142.655 8.59375 146.727 12.8314 149.71 18.3949C152.716 23.9583 154.22 30.7055 154.22 38.6364ZM138.63 38.6364C138.63 33.4991 137.861 29.1667 136.322 25.6392C134.807 22.1117 132.664 19.4366 129.894 17.6136C127.125 15.7907 123.881 14.8793 120.164 14.8793C116.447 14.8793 113.204 15.7907 110.434 17.6136C107.664 19.4366 105.51 22.1117 103.971 25.6392C102.456 29.1667 101.698 33.4991 101.698 38.6364C101.698 43.7737 102.456 48.1061 103.971 51.6335C105.51 55.161 107.664 57.8362 110.434 59.6591C113.204 61.482 116.447 62.3935 120.164 62.3935C123.881 62.3935 127.125 61.482 129.894 59.6591C132.664 57.8362 134.807 55.161 136.322 51.6335C137.861 48.1061 138.63 43.7737 138.63 38.6364Z" fill="#AA0000"/>
<path d="M220.532 2.27273H235.908V49.5028C235.908 54.8059 234.642 59.446 232.109 63.4233C229.599 67.4006 226.083 70.5019 221.562 72.7273C217.04 74.929 211.772 76.0298 205.759 76.0298C199.722 76.0298 194.443 74.929 189.921 72.7273C185.399 70.5019 181.884 67.4006 179.374 63.4233C176.865 59.446 175.61 54.8059 175.61 49.5028V2.27273H190.986V48.1889C190.986 50.9588 191.59 53.4209 192.798 55.5753C194.029 57.7296 195.757 59.4224 197.982 60.6534C200.208 61.8845 202.8 62.5 205.759 62.5C208.742 62.5 211.334 61.8845 213.536 60.6534C215.762 59.4224 217.478 57.7296 218.685 55.5753C219.916 53.4209 220.532 50.9588 220.532 48.1889V2.27273Z" fill="#AA0000"/>
<path d="M258.559 75V2.27273H287.252C292.745 2.27273 297.432 3.25521 301.315 5.22017C305.221 7.16146 308.192 9.91951 310.228 13.4943C312.288 17.0455 313.318 21.224 313.318 26.0298C313.318 30.8594 312.276 35.0142 310.193 38.4943C308.109 41.9508 305.091 44.6023 301.137 46.4489C297.207 48.2955 292.449 49.2188 286.862 49.2188H267.65V36.8608H284.376C287.312 36.8608 289.75 36.4583 291.691 35.6534C293.633 34.8485 295.077 33.6411 296.024 32.0313C296.994 30.4214 297.48 28.4209 297.48 26.0298C297.48 23.6151 296.994 21.5791 296.024 19.9219C295.077 18.2647 293.621 17.0099 291.656 16.1577C289.715 15.2817 287.264 14.8438 284.305 14.8438H273.936V75H258.559ZM297.835 41.9034L315.91 75H298.936L281.251 41.9034H297.835Z" fill="#AA0000"/>
<path d="M367.329 75V2.27273H382.705V62.3224H413.884V75H367.329Z" fill="#AA0000"/>
<path d="M498.067 38.6364C498.067 46.5672 496.564 53.3144 493.557 58.8778C490.574 64.4413 486.503 68.6908 481.342 71.6264C476.204 74.5384 470.428 75.9943 464.012 75.9943C457.549 75.9943 451.749 74.5265 446.611 71.5909C441.474 68.6553 437.414 64.4058 434.431 58.8423C431.448 53.2789 429.957 46.5436 429.957 38.6364C429.957 30.7055 431.448 23.9583 434.431 18.3949C437.414 12.8314 441.474 8.59375 446.611 5.68182C451.749 2.74622 457.549 1.27841 464.012 1.27841C470.428 1.27841 476.204 2.74622 481.342 5.68182C486.503 8.59375 490.574 12.8314 493.557 18.3949C496.564 23.9583 498.067 30.7055 498.067 38.6364ZM482.478 38.6364C482.478 33.4991 481.708 29.1667 480.17 25.6392C478.654 22.1117 476.512 19.4366 473.742 17.6136C470.972 15.7907 467.729 14.8793 464.012 14.8793C460.295 14.8793 457.052 15.7907 454.282 17.6136C451.512 19.4366 449.358 22.1117 447.819 25.6392C446.304 29.1667 445.546 33.4991 445.546 38.6364C445.546 43.7737 446.304 48.1061 447.819 51.6335C449.358 55.161 451.512 57.8362 454.282 59.6591C457.052 61.482 460.295 62.3935 464.012 62.3935C467.729 62.3935 470.972 61.482 473.742 59.6591C476.512 57.8362 478.654 55.161 480.17 51.6335C481.708 48.1061 482.478 43.7737 482.478 38.6364Z" fill="#AA0000"/>
<path d="M567.682 25.7813C567.185 24.053 566.487 22.526 565.587 21.2003C564.687 19.8509 563.586 18.7145 562.284 17.7912C561.006 16.8442 559.538 16.1222 557.881 15.625C556.247 15.1278 554.436 14.8793 552.448 14.8793C548.731 14.8793 545.464 15.8026 542.647 17.6491C539.853 19.4957 537.675 22.1828 536.112 25.7102C534.55 29.214 533.769 33.4991 533.769 38.5653C533.769 43.6316 534.538 47.9403 536.077 51.4915C537.616 55.0426 539.794 57.7533 542.611 59.6236C545.428 61.4702 548.755 62.3935 552.59 62.3935C556.07 62.3935 559.041 61.7779 561.503 60.5469C563.989 59.2921 565.883 57.5284 567.185 55.2557C568.511 52.983 569.174 50.2959 569.174 47.1946L572.299 47.6563H553.549V36.0795H583.982V45.2415C583.982 51.6335 582.632 57.126 579.934 61.7188C577.235 66.2879 573.518 69.8153 568.783 72.3011C564.048 74.7633 558.627 75.9943 552.519 75.9943C545.701 75.9943 539.711 74.491 534.55 71.4844C529.389 68.4541 525.364 64.1572 522.476 58.5938C519.612 53.0066 518.179 46.3778 518.179 38.7074C518.179 32.8125 519.032 27.5568 520.736 22.9403C522.464 18.3002 524.879 14.3703 527.98 11.1506C531.082 7.93087 534.692 5.48059 538.811 3.79972C542.931 2.11885 547.393 1.27841 552.199 1.27841C556.318 1.27841 560.154 1.88211 563.705 3.08949C567.256 4.27321 570.405 5.95408 573.151 8.13211C575.921 10.3101 578.182 12.9025 579.934 15.9091C581.685 18.892 582.81 22.1828 583.307 25.7813H567.682Z" fill="#AA0000"/>
<path d="M672.364 38.6364C672.364 46.5672 670.861 53.3144 667.854 58.8778C664.871 64.4413 660.799 68.6908 655.638 71.6264C650.501 74.5384 644.725 75.9943 638.309 75.9943C631.846 75.9943 626.046 74.5265 620.908 71.5909C615.771 68.6553 611.711 64.4058 608.728 58.8423C605.745 53.2789 604.253 46.5436 604.253 38.6364C604.253 30.7055 605.745 23.9583 608.728 18.3949C611.711 12.8314 615.771 8.59375 620.908 5.68182C626.046 2.74622 631.846 1.27841 638.309 1.27841C644.725 1.27841 650.501 2.74622 655.638 5.68182C660.799 8.59375 664.871 12.8314 667.854 18.3949C670.861 23.9583 672.364 30.7055 672.364 38.6364ZM656.775 38.6364C656.775 33.4991 656.005 29.1667 654.467 25.6392C652.951 22.1117 650.809 19.4366 648.039 17.6136C645.269 15.7907 642.026 14.8793 638.309 14.8793C634.592 14.8793 631.349 15.7907 628.579 17.6136C625.809 19.4366 623.654 22.1117 622.116 25.6392C620.601 29.1667 619.843 33.4991 619.843 38.6364C619.843 43.7737 620.601 48.1061 622.116 51.6335C623.654 55.161 625.809 57.8362 628.579 59.6591C631.349 61.482 634.592 62.3935 638.309 62.3935C642.026 62.3935 645.269 61.482 648.039 59.6591C650.809 57.8362 652.951 55.161 654.467 51.6335C656.005 48.1061 656.775 43.7737 656.775 38.6364Z" fill="#AA0000"/>
<path d="M5.05957 2.27273H22.2826L38.8664 33.5938H39.5766L56.1604 2.27273H73.3834L46.8564 49.2898V75H31.5866V49.2898L5.05957 2.27273Z" stroke="white" mask="url(#path-1-outside-1_1404_147)"/>
<path d="M154.22 38.6364C154.22 46.5672 152.716 53.3144 149.71 58.8778C146.727 64.4413 142.655 68.6908 137.494 71.6264C132.357 74.5384 126.58 75.9943 120.164 75.9943C113.701 75.9943 107.901 74.5265 102.764 71.5909C97.6265 68.6553 93.5663 64.4058 90.5834 58.8423C87.6004 53.2789 86.1089 46.5436 86.1089 38.6364C86.1089 30.7055 87.6004 23.9583 90.5834 18.3949C93.5663 12.8314 97.6265 8.59375 102.764 5.68182C107.901 2.74622 113.701 1.27841 120.164 1.27841C126.58 1.27841 132.357 2.74622 137.494 5.68182C142.655 8.59375 146.727 12.8314 149.71 18.3949C152.716 23.9583 154.22 30.7055 154.22 38.6364ZM138.63 38.6364C138.63 33.4991 137.861 29.1667 136.322 25.6392C134.807 22.1117 132.664 19.4366 129.894 17.6136C127.125 15.7907 123.881 14.8793 120.164 14.8793C116.447 14.8793 113.204 15.7907 110.434 17.6136C107.664 19.4366 105.51 22.1117 103.971 25.6392C102.456 29.1667 101.698 33.4991 101.698 38.6364C101.698 43.7737 102.456 48.1061 103.971 51.6335C105.51 55.161 107.664 57.8362 110.434 59.6591C113.204 61.482 116.447 62.3935 120.164 62.3935C123.881 62.3935 127.125 61.482 129.894 59.6591C132.664 57.8362 134.807 55.161 136.322 51.6335C137.861 48.1061 138.63 43.7737 138.63 38.6364Z" stroke="white" mask="url(#path-1-outside-1_1404_147)"/>
<path d="M220.532 2.27273H235.908V49.5028C235.908 54.8059 234.642 59.446 232.109 63.4233C229.599 67.4006 226.083 70.5019 221.562 72.7273C217.04 74.929 211.772 76.0298 205.759 76.0298C199.722 76.0298 194.443 74.929 189.921 72.7273C185.399 70.5019 181.884 67.4006 179.374 63.4233C176.865 59.446 175.61 54.8059 175.61 49.5028V2.27273H190.986V48.1889C190.986 50.9588 191.59 53.4209 192.798 55.5753C194.029 57.7296 195.757 59.4224 197.982 60.6534C200.208 61.8845 202.8 62.5 205.759 62.5C208.742 62.5 211.334 61.8845 213.536 60.6534C215.762 59.4224 217.478 57.7296 218.685 55.5753C219.916 53.4209 220.532 50.9588 220.532 48.1889V2.27273Z" stroke="white" mask="url(#path-1-outside-1_1404_147)"/>
<path d="M258.559 75V2.27273H287.252C292.745 2.27273 297.432 3.25521 301.315 5.22017C305.221 7.16146 308.192 9.91951 310.228 13.4943C312.288 17.0455 313.318 21.224 313.318 26.0298C313.318 30.8594 312.276 35.0142 310.193 38.4943C308.109 41.9508 305.091 44.6023 301.137 46.4489C297.207 48.2955 292.449 49.2188 286.862 49.2188H267.65V36.8608H284.376C287.312 36.8608 289.75 36.4583 291.691 35.6534C293.633 34.8485 295.077 33.6411 296.024 32.0313C296.994 30.4214 297.48 28.4209 297.48 26.0298C297.48 23.6151 296.994 21.5791 296.024 19.9219C295.077 18.2647 293.621 17.0099 291.656 16.1577C289.715 15.2817 287.264 14.8438 284.305 14.8438H273.936V75H258.559ZM297.835 41.9034L315.91 75H298.936L281.251 41.9034H297.835Z" stroke="white" mask="url(#path-1-outside-1_1404_147)"/>
<path d="M367.329 75V2.27273H382.705V62.3224H413.884V75H367.329Z" stroke="white" mask="url(#path-1-outside-1_1404_147)"/>
<path d="M498.067 38.6364C498.067 46.5672 496.564 53.3144 493.557 58.8778C490.574 64.4413 486.503 68.6908 481.342 71.6264C476.204 74.5384 470.428 75.9943 464.012 75.9943C457.549 75.9943 451.749 74.5265 446.611 71.5909C441.474 68.6553 437.414 64.4058 434.431 58.8423C431.448 53.2789 429.957 46.5436 429.957 38.6364C429.957 30.7055 431.448 23.9583 434.431 18.3949C437.414 12.8314 441.474 8.59375 446.611 5.68182C451.749 2.74622 457.549 1.27841 464.012 1.27841C470.428 1.27841 476.204 2.74622 481.342 5.68182C486.503 8.59375 490.574 12.8314 493.557 18.3949C496.564 23.9583 498.067 30.7055 498.067 38.6364ZM482.478 38.6364C482.478 33.4991 481.708 29.1667 480.17 25.6392C478.654 22.1117 476.512 19.4366 473.742 17.6136C470.972 15.7907 467.729 14.8793 464.012 14.8793C460.295 14.8793 457.052 15.7907 454.282 17.6136C451.512 19.4366 449.358 22.1117 447.819 25.6392C446.304 29.1667 445.546 33.4991 445.546 38.6364C445.546 43.7737 446.304 48.1061 447.819 51.6335C449.358 55.161 451.512 57.8362 454.282 59.6591C457.052 61.482 460.295 62.3935 464.012 62.3935C467.729 62.3935 470.972 61.482 473.742 59.6591C476.512 57.8362 478.654 55.161 480.17 51.6335C481.708 48.1061 482.478 43.7737 482.478 38.6364Z" stroke="white" mask="url(#path-1-outside-1_1404_147)"/>
<path d="M567.682 25.7813C567.185 24.053 566.487 22.526 565.587 21.2003C564.687 19.8509 563.586 18.7145 562.284 17.7912C561.006 16.8442 559.538 16.1222 557.881 15.625C556.247 15.1278 554.436 14.8793 552.448 14.8793C548.731 14.8793 545.464 15.8026 542.647 17.6491C539.853 19.4957 537.675 22.1828 536.112 25.7102C534.55 29.214 533.769 33.4991 533.769 38.5653C533.769 43.6316 534.538 47.9403 536.077 51.4915C537.616 55.0426 539.794 57.7533 542.611 59.6236C545.428 61.4702 548.755 62.3935 552.59 62.3935C556.07 62.3935 559.041 61.7779 561.503 60.5469C563.989 59.2921 565.883 57.5284 567.185 55.2557C568.511 52.983 569.174 50.2959 569.174 47.1946L572.299 47.6563H553.549V36.0795H583.982V45.2415C583.982 51.6335 582.632 57.126 579.934 61.7188C577.235 66.2879 573.518 69.8153 568.783 72.3011C564.048 74.7633 558.627 75.9943 552.519 75.9943C545.701 75.9943 539.711 74.491 534.55 71.4844C529.389 68.4541 525.364 64.1572 522.476 58.5938C519.612 53.0066 518.179 46.3778 518.179 38.7074C518.179 32.8125 519.032 27.5568 520.736 22.9403C522.464 18.3002 524.879 14.3703 527.98 11.1506C531.082 7.93087 534.692 5.48059 538.811 3.79972C542.931 2.11885 547.393 1.27841 552.199 1.27841C556.318 1.27841 560.154 1.88211 563.705 3.08949C567.256 4.27321 570.405 5.95408 573.151 8.13211C575.921 10.3101 578.182 12.9025 579.934 15.9091C581.685 18.892 582.81 22.1828 583.307 25.7813H567.682Z" stroke="white" mask="url(#path-1-outside-1_1404_147)"/>
<path d="M672.364 38.6364C672.364 46.5672 670.861 53.3144 667.854 58.8778C664.871 64.4413 660.799 68.6908 655.638 71.6264C650.501 74.5384 644.725 75.9943 638.309 75.9943C631.846 75.9943 626.046 74.5265 620.908 71.5909C615.771 68.6553 611.711 64.4058 608.728 58.8423C605.745 53.2789 604.253 46.5436 604.253 38.6364C604.253 30.7055 605.745 23.9583 608.728 18.3949C611.711 12.8314 615.771 8.59375 620.908 5.68182C626.046 2.74622 631.846 1.27841 638.309 1.27841C644.725 1.27841 650.501 2.74622 655.638 5.68182C660.799 8.59375 664.871 12.8314 667.854 18.3949C670.861 23.9583 672.364 30.7055 672.364 38.6364ZM656.775 38.6364C656.775 33.4991 656.005 29.1667 654.467 25.6392C652.951 22.1117 650.809 19.4366 648.039 17.6136C645.269 15.7907 642.026 14.8793 638.309 14.8793C634.592 14.8793 631.349 15.7907 628.579 17.6136C625.809 19.4366 623.654 22.1117 622.116 25.6392C620.601 29.1667 619.843 33.4991 619.843 38.6364C619.843 43.7737 620.601 48.1061 622.116 51.6335C623.654 55.161 625.809 57.8362 628.579 59.6591C631.349 61.482 634.592 62.3935 638.309 62.3935C642.026 62.3935 645.269 61.482 648.039 59.6591C650.809 57.8362 652.951 55.161 654.467 51.6335C656.005 48.1061 656.775 43.7737 656.775 38.6364Z" stroke="white" mask="url(#path-1-outside-1_1404_147)"/>
</g>
<defs>
<filter id="filter0_d_1404_147" x="0.203125" y="0.778412" width="676.661" height="83.7514" filterUnits="userSpaceOnUse" color-interpolation-filters="sRGB">
<feFlood flood-opacity="0" result="BackgroundImageFix"/>
<feColorMatrix in="SourceAlpha" type="matrix" values="0 0 0 0 0 0 0 0 0 0 0 0 0 0 0 0 0 0 127 0" result="hardAlpha"/>
<feOffset dy="4"/>
<feGaussianBlur stdDeviation="2"/>
<feComposite in2="hardAlpha" operator="out"/>
<feColorMatrix type="matrix" values="0 0 0 0 0 0 0 0 0 0 0 0 0 0 0 0 0 0 0.25 0"/>
<feBlend mode="normal" in2="BackgroundImageFix" result="effect1_dropShadow_1404_147"/>
<feBlend mode="normal" in="SourceGraphic" in2="effect1_dropShadow_1404_147" result="shape"/>
</filter>
</defs>
</svg>
